PathFileType	4	(X/Y/Z)	C:/Users/opensim2020/Desktop/walking_exp_matlab/subject01_walking05_straight_01.trc	
DataRate	CameraRate	NumFrames	NumMarkers	Units	OrigDataRate	OrigDataStartFrame	OrigNumFrames	
100.00	100.00	4	43	mm	100.00	964	239	
Frame#	Time	LFHD			RFHD			LBHD			RBHD			C7			T10			CLAV			STRN			RBAK			LSHO			LUPA			LELB			LFRM			LWRA			LWRB			LFIN			RSHO			RUPA			RELB			RFRM			RWRA			RWRB			RFIN			LASI			RASI			LPSI			RPSI			LTHI			LKNE			LTIB			LANK			LHEE			LTOE			RTHI			RKNE			RTIB			RANK			RHEE			RTOE			*39			*40			*41			*42			
		X1	Y1	Z1	X2	Y2	Z2	X3	Y3	Z3	X4	Y4	Z4	X5	Y5	Z5	X6	Y6	Z6	X7	Y7	Z7	X8	Y8	Z8	X9	Y9	Z9	X10	Y10	Z10	X11	Y11	Z11	X12	Y12	Z12	X13	Y13	Z13	X14	Y14	Z14	X15	Y15	Z15	X16	Y16	Z16	X17	Y17	Z17	X18	Y18	Z18	X19	Y19	Z19	X20	Y20	Z20	X21	Y21	Z21	X22	Y22	Z22	X23	Y23	Z23	X24	Y24	Z24	X25	Y25	Z25	X26	Y26	Z26	X27	Y27	Z27	X28	Y28	Z28	X29	Y29	Z29	X30	Y30	Z30	X31	Y31	Z31	X32	Y32	Z32	X33	Y33	Z33	X34	Y34	Z34	X35	Y35	Z35	X36	Y36	Z36	X37	Y37	Z37	X38	Y38	Z38	X39	Y39	Z39	X40	Y40	Z40	X41	Y41	Z41	X42	Y42	Z42	X43	Y43	Z43	

210	2.090	-1058.91272	778.11279	1679.52441	-943.80658	779.04877	1684.66663	-1063.89087	673.34808	1610.96118	-942.17706	671.51373	1614.55493	-1022.92322	660.45782	1425.47913	-1014.49597	645.01794	1132.18677	-1011.06689	810.62854	1370.73694	-1020.17566	865.60699	1219.96753	-950.37842	619.90564	1225.33850	-1175.64294	757.92670	1398.68640	-1270.82922	759.49463	1219.41150	-1287.44812	773.98901	1067.97815	-1310.80798	859.32104	988.23944	-1290.76697	982.35272	925.80627	-1315.83264	937.72418	894.75427	-1326.48389	1012.71985	858.95477	-863.48926	733.95831	1390.51331	-775.58063	663.49091	1189.67932	-777.28577	659.34381	1065.86975	-745.73865	671.89630	946.89825	-759.37830	740.14923	821.57294	-724.71826	694.11200	827.75079	-725.24329	721.37811	746.06750	-1127.19128	819.90546	930.37823	-913.17322	833.99121	937.97644	-1062.58264	637.90002	944.47174	-917.00848	648.81897	947.84210	-1190.28870	753.45569	595.87079	-1184.55676	722.54822	463.61130	-1191.24316	575.10144	345.93640	-1144.14111	427.33371	177.61121	-1090.47302	385.27783	195.64874	-1113.79297	482.82489	39.85887	-860.74963	840.48846	607.19952	-897.73828	879.85437	455.34799	-894.29822	855.48334	279.87985	-952.84088	854.12469	77.82336	-1006.36389	807.96918	40.11897	-949.67188	994.82330	42.54343	-967.47784	761.54724	1715.40100	-3101.86182	1973.11438	1023.27283	-3140.66943	2012.47107	1021.95642			 
211	2.100	-1056.44446	787.84473	1680.25122	-941.39301	788.74054	1685.04077	-1061.88306	682.98267	1612.03259	-940.13007	681.02026	1615.20789	-1021.18390	669.83160	1426.03613	-1012.93988	654.49866	1132.81885	-1009.50146	819.99744	1371.37817	-1018.72998	874.95087	1220.64453	-948.27075	629.55859	1226.02271	-1173.90649	767.35547	1399.48120	-1269.28601	767.98218	1220.05579	-1284.82935	780.56311	1068.16467	-1308.31140	864.57599	987.02777	-1288.49329	986.72321	922.51068	-1313.52185	941.44263	892.24634	-1323.98657	1015.92548	854.97668	-861.87354	743.50824	1391.12756	-773.74011	673.69702	1190.36194	-775.67169	670.18298	1066.37292	-744.09845	683.91833	947.40460	-757.96136	753.35571	822.72156	-723.19452	707.32202	828.47235	-723.75580	735.51825	747.15594	-1125.35071	829.62579	931.11621	-911.21301	843.41882	938.90070	-1061.31128	647.52551	944.52960	-915.70013	658.39081	948.66687	-1189.64307	770.55176	595.23126	-1184.63269	742.06207	462.70996	-1192.40820	594.57306	346.75949	-1145.87695	442.22183	183.75378	-1093.81909	399.16486	203.96677	-1114.39111	491.38959	43.80696	-860.10211	845.64862	606.90509	-896.89691	885.18567	455.02213	-894.54865	858.19708	279.75095	-953.00366	854.49597	77.88805	-1006.48407	807.99219	40.27114	-950.00055	995.20782	42.26286	-964.83691	771.35754	1715.92957	-3101.90503	1973.15491	1023.47986	-3140.51978	2012.55371	1021.99774			 
212	2.110	-1053.96106	797.61572	1681.03577	-938.96362	798.39618	1685.47351	-1059.99048	692.50854	1613.10278	-938.05933	690.39648	1615.91919	-1019.52551	679.10693	1426.78430	-1011.32391	663.86871	1133.51648	-1008.03253	829.30078	1371.97253	-1017.36963	884.24835	1221.25061	-946.15753	639.05048	1226.79297	-1172.37964	776.74683	1400.16760	-1267.79028	776.40784	1220.63501	-1282.08118	787.18732	1068.39954	-1305.96985	869.58948	985.50677	-1286.25427	990.91632	919.03070	-1311.17871	945.00317	889.56140	-1321.43579	1018.85138	850.83124	-860.40088	753.28326	1391.92761	-771.81500	683.97144	1191.02661	-773.90881	680.94379	1066.80737	-742.43890	695.95428	947.78839	-756.44403	767.01349	824.10510	-721.67999	720.72839	829.11859	-722.44965	749.70172	747.96387	-1123.78015	839.23981	931.70203	-909.28522	852.75671	939.58875	-1059.92395	656.84656	944.35394	-914.47510	667.64838	948.99506	-1188.70886	787.23828	594.86316	-1184.36890	761.53845	462.07135	-1193.77759	614.59473	346.90808	-1146.70129	457.09131	189.67981	-1095.08679	413.85294	210.92323	-1116.55579	503.96039	48.39356	-859.54602	850.85895	606.72522	-895.95343	889.84351	454.55179	-894.57465	859.69623	279.49258	-953.21014	854.72797	77.85156	-1006.79620	807.76697	40.53338	-950.24512	995.75024	42.22028	-962.43054	780.97357	1716.26660	-3101.74463	1973.15625	1023.32483	-3140.65479	2012.52222	1022.00409			 
213	2.120	-1051.79028	807.38959	1681.80652	-936.78900	808.01575	1685.74634	-1058.14355	702.09717	1614.17993	-936.23260	699.88214	1616.52661	-1017.99042	688.48480	1427.40552	-1009.55725	673.15424	1134.09998	-1006.72113	838.52527	1372.57263	-1016.13098	893.41309	1221.77295	-944.18201	648.31824	1227.61768	-1171.09534	785.97461	1400.72986	-1266.25952	784.60968	1221.11682	-1279.72656	793.79468	1068.42529	-1303.63025	874.56677	983.95154	-1284.10815	994.89288	915.42303	-1308.75549	948.32239	886.70807	-1318.88574	1021.51312	846.55566	-858.94403	762.86108	1392.44385	-769.89673	694.30029	1191.59351	-772.11310	691.70203	1067.12219	-740.69873	708.13904	948.11871	-755.09180	780.33466	825.17010	-720.24823	734.27411	829.79047	-720.93030	764.35986	749.02887	-1122.08789	848.46423	932.29614	-907.73615	861.43622	940.04541	-1058.60339	665.98914	943.94696	-913.04529	675.80261	949.49103	-1187.47424	803.75391	594.91516	-1183.78857	781.08020	461.71967	-1194.97681	634.71680	346.64935	-1147.02087	472.31409	195.46860	-1094.69080	429.38513	216.21365	-1119.46289	519.16809	53.61747	-858.88116	856.27808	606.58069	-895.01416	893.85461	454.04047	-894.33899	860.88763	279.28305	-953.38574	854.87909	77.84195	-1006.95087	807.81165	40.55551	-950.56219	995.82422	41.90268	-959.96594	790.69934	1716.70923	-3101.90332	1973.18628	1023.30096	-3140.66064	2012.50830	1022.03204			 
